<svg xmlns="http://www.w3.org/2000/svg" width="375" viewBox="0 0 375 375" height="375" version="1.0"><defs><clipPath id="a"><path d="M 45.175781 76.960938 L 309 76.960938 L 309 298.210938 L 45.175781 298.210938 Z M 45.175781 76.960938"/></clipPath></defs><path fill="#FFF" d="M-37.5 -37.5H412.5V412.5H-37.5z"/><path fill="#FFF" d="M-37.5 -37.5H412.5V412.5H-37.5z"/><path d="M-37.5 -37.5H412.5V412.5H-37.5z"/><g clip-path="url(#a)"><path fill="#FFF" d="M 298.351562 233.085938 C 297.335938 244.003906 285.371094 250.261719 265.480469 250.261719 C 256.859375 250.261719 246.484375 246.488281 235.136719 240.511719 C 237.28125 239.878906 239.394531 239.164062 241.484375 238.363281 C 243.570312 237.5625 245.621094 236.675781 247.636719 235.710938 C 249.652344 234.746094 251.625 233.699219 253.554688 232.574219 C 255.488281 231.449219 257.371094 230.25 259.207031 228.976562 C 261.039062 227.699219 262.820312 226.351562 264.546875 224.933594 C 266.277344 223.515625 267.941406 222.027344 269.550781 220.476562 C 271.15625 218.921875 272.699219 217.308594 274.179688 215.632812 C 275.65625 213.953125 277.066406 212.222656 278.402344 210.429688 C 279.742188 208.640625 281.007812 206.800781 282.199219 204.910156 C 283.390625 203.015625 284.5 201.082031 285.539062 199.101562 C 286.574219 197.117188 287.527344 195.097656 288.398438 193.042969 C 289.273438 190.984375 290.0625 188.894531 290.769531 186.773438 C 291.472656 184.652344 292.09375 182.507812 292.625 180.335938 C 293.160156 178.164062 293.605469 175.976562 293.960938 173.769531 C 294.320312 171.5625 294.585938 169.34375 294.765625 167.117188 C 294.945312 164.886719 295.035156 162.65625 295.035156 160.421875 C 295.035156 114.398438 257.589844 76.960938 211.59375 76.960938 L 74.710938 76.960938 L 74.710938 87.652344 L 157.988281 87.652344 C 198.113281 87.652344 230.761719 120.292969 230.761719 160.414062 C 230.761719 183.410156 219.402344 205.097656 201.042969 218.996094 C 194.355469 214.328125 187.589844 209.4375 180.871094 204.585938 C 173.539062 199.292969 165.964844 193.824219 158.566406 188.664062 L 158.566406 133.011719 L 168.703125 133.011719 L 168.703125 122.316406 L 94.769531 122.316406 L 94.769531 133.011719 L 108.324219 133.011719 L 108.324219 159.722656 C 99.472656 156.316406 91.660156 154.652344 84.578125 154.652344 C 67.472656 154.652344 55.894531 163.429688 50.164062 180.742188 C 45.679688 194.277344 45.308594 210.882812 45.308594 228.140625 L 45.710938 228.140625 C 45.441406 230.1875 45.304688 232.238281 45.308594 234.300781 C 45.308594 257.832031 63.269531 270.148438 81.019531 270.148438 C 103.035156 270.148438 119.015625 252.722656 119.015625 228.714844 L 119.015625 133.011719 L 147.851562 133.011719 L 147.851562 279.074219 L 108.515625 279.074219 L 108.515625 289.765625 L 168.664062 289.765625 L 168.664062 279.074219 L 158.523438 279.074219 L 158.523438 245.808594 L 162.210938 248.484375 C 195.828125 272.929688 230.59375 298.210938 265.457031 298.210938 C 278.867188 298.210938 289.492188 295.675781 297.03125 290.671875 C 304.195312 285.921875 308.332031 279.140625 309 271.066406 L 309 228.140625 L 298.351562 228.140625 Z M 108.324219 228.714844 C 108.324219 246.816406 97.09375 259.453125 81.019531 259.453125 C 72.367188 259.453125 56 254.195312 56 234.300781 C 56 217.265625 66.992188 206.480469 84.679688 206.152344 L 85.359375 206.152344 C 92.101562 206.152344 99.636719 208.007812 108.335938 211.816406 Z M 108.324219 200.253906 C 99.625 196.898438 91.789062 195.335938 84.496094 195.460938 C 73.050781 195.675781 63.4375 199.515625 56.613281 206.03125 C 58.234375 182.390625 64.148438 165.335938 84.601562 165.335938 C 91.316406 165.335938 99.097656 167.285156 108.351562 171.261719 Z M 241.453125 160.414062 C 241.449219 156.726562 241.207031 153.054688 240.714844 149.398438 C 240.226562 145.742188 239.5 142.132812 238.53125 138.574219 C 237.5625 135.015625 236.367188 131.535156 234.9375 128.132812 C 233.507812 124.730469 231.859375 121.441406 229.996094 118.257812 C 228.132812 115.074219 226.0625 112.027344 223.796875 109.121094 C 221.527344 106.210938 219.078125 103.464844 216.445312 100.878906 C 213.8125 98.296875 211.019531 95.894531 208.070312 93.679688 C 205.117188 91.464844 202.035156 89.457031 198.816406 87.652344 L 211.59375 87.652344 C 251.71875 87.652344 284.367188 120.292969 284.367188 160.414062 C 284.367188 196.21875 256.789062 227.324219 221.433594 232.558594 C 217.808594 230.300781 214.125 227.898438 210.398438 225.394531 C 212.824219 223.453125 215.132812 221.378906 217.324219 219.175781 C 219.519531 216.976562 221.582031 214.65625 223.511719 212.222656 C 225.445312 209.789062 227.234375 207.253906 228.878906 204.617188 C 230.527344 201.980469 232.019531 199.261719 233.359375 196.457031 C 234.699219 193.652344 235.878906 190.785156 236.894531 187.847656 C 237.914062 184.910156 238.761719 181.925781 239.441406 178.894531 C 240.125 175.859375 240.632812 172.800781 240.96875 169.710938 C 241.304688 166.621094 241.464844 163.523438 241.453125 160.414062 Z M 298.351562 270.410156 C 297.304688 281.304688 285.339844 287.546875 265.480469 287.546875 C 234.09375 287.546875 200.753906 263.304688 168.515625 239.863281 C 165.171875 237.429688 161.84375 235.011719 158.542969 232.636719 L 158.542969 201.726562 C 163.917969 205.535156 169.328125 209.441406 174.609375 213.253906 C 208.578125 237.773438 240.632812 260.933594 265.480469 260.933594 C 278.886719 260.933594 289.515625 258.398438 297.050781 253.394531 C 297.5 253.101562 297.929688 252.796875 298.351562 252.488281 Z M 298.351562 270.410156"/></g></svg>