
<svg xmlns="http://www.w3.org/2000/svg" width="375" viewBox="0 0 375 375" height="375" version="1.0"><defs><clipPath id="a"><path d="M 122.332031 124.089844 L 252.832031 124.089844 L 252.832031 233.589844 L 122.332031 233.589844 Z M 122.332031 124.089844"/></clipPath></defs><path fill="#FFF" d="M-37.5 -37.5H412.5V412.5H-37.5z"/><path fill="#FFF" d="M-37.5 -37.5H412.5V412.5H-37.5z"/><path d="M-37.5 -37.5H412.5V412.5H-37.5z"/><g clip-path="url(#a)"><path fill="#FFF" d="M 247.484375 201.359375 C 246.984375 206.761719 241.070312 209.859375 231.234375 209.859375 C 226.976562 209.859375 221.84375 207.992188 216.234375 205.035156 C 217.296875 204.722656 218.339844 204.367188 219.371094 203.972656 C 220.40625 203.574219 221.417969 203.136719 222.414062 202.660156 C 223.410156 202.179688 224.386719 201.664062 225.339844 201.109375 C 226.296875 200.550781 227.226562 199.957031 228.132812 199.324219 C 229.042969 198.695312 229.921875 198.027344 230.777344 197.324219 C 231.628906 196.621094 232.453125 195.886719 233.25 195.117188 C 234.042969 194.351562 234.804688 193.550781 235.535156 192.722656 C 236.265625 191.890625 236.964844 191.035156 237.625 190.148438 C 238.285156 189.261719 238.910156 188.351562 239.5 187.414062 C 240.089844 186.480469 240.640625 185.519531 241.152344 184.539062 C 241.664062 183.558594 242.136719 182.558594 242.566406 181.542969 C 243 180.523438 243.386719 179.488281 243.738281 178.4375 C 244.085938 177.390625 244.390625 176.328125 244.65625 175.253906 C 244.917969 174.179688 245.140625 173.09375 245.316406 172.003906 C 245.492188 170.910156 245.625 169.8125 245.714844 168.710938 C 245.800781 167.609375 245.847656 166.503906 245.847656 165.398438 C 245.847656 142.621094 227.335938 124.089844 204.597656 124.089844 L 136.929688 124.089844 L 136.929688 129.382812 L 178.097656 129.382812 C 197.933594 129.382812 214.074219 145.539062 214.074219 165.394531 C 214.074219 176.773438 208.457031 187.507812 199.382812 194.386719 C 196.078125 192.078125 192.730469 189.65625 189.410156 187.253906 C 185.785156 184.636719 182.042969 181.929688 178.382812 179.375 L 178.382812 151.832031 L 183.394531 151.832031 L 183.394531 146.539062 L 146.84375 146.539062 L 146.84375 151.832031 L 153.546875 151.832031 L 153.546875 165.050781 C 149.171875 163.363281 145.308594 162.542969 141.808594 162.542969 C 133.351562 162.542969 127.628906 166.886719 124.796875 175.453125 C 122.578125 182.152344 122.394531 190.371094 122.394531 198.914062 L 122.59375 198.914062 C 122.460938 199.925781 122.394531 200.941406 122.394531 201.960938 C 122.394531 213.605469 131.273438 219.703125 140.046875 219.703125 C 150.933594 219.703125 158.832031 211.078125 158.832031 199.195312 L 158.832031 151.832031 L 173.085938 151.832031 L 173.085938 224.121094 L 153.640625 224.121094 L 153.640625 229.410156 L 183.375 229.410156 L 183.375 224.121094 L 178.363281 224.121094 L 178.363281 207.65625 L 180.183594 208.980469 C 196.804688 221.082031 213.992188 233.589844 231.226562 233.589844 C 237.855469 233.589844 243.105469 232.335938 246.832031 229.859375 C 250.375 227.511719 252.421875 224.152344 252.75 220.15625 L 252.75 198.914062 L 247.484375 198.914062 Z M 153.546875 199.195312 C 153.546875 208.15625 147.996094 214.410156 140.046875 214.410156 C 135.769531 214.410156 127.679688 211.808594 127.679688 201.960938 C 127.679688 193.53125 133.113281 188.195312 141.859375 188.03125 L 142.195312 188.03125 C 145.527344 188.03125 149.25 188.949219 153.550781 190.832031 Z M 153.546875 185.109375 C 149.246094 183.449219 145.371094 182.675781 141.765625 182.738281 C 136.109375 182.84375 131.355469 184.746094 127.984375 187.96875 C 128.785156 176.269531 131.707031 167.832031 141.820312 167.832031 C 145.136719 167.832031 148.984375 168.792969 153.558594 170.761719 Z M 219.359375 165.394531 C 219.355469 163.570312 219.234375 161.75 218.992188 159.941406 C 218.753906 158.132812 218.390625 156.347656 217.914062 154.585938 C 217.433594 152.824219 216.84375 151.101562 216.136719 149.417969 C 215.429688 147.734375 214.617188 146.105469 213.695312 144.53125 C 212.773438 142.953125 211.75 141.445312 210.628906 140.007812 C 209.507812 138.566406 208.296875 137.207031 206.996094 135.929688 C 205.695312 134.648438 204.3125 133.460938 202.855469 132.367188 C 201.398438 131.269531 199.871094 130.277344 198.28125 129.382812 L 204.597656 129.382812 C 224.433594 129.382812 240.574219 145.539062 240.574219 165.394531 C 240.574219 183.113281 226.941406 198.507812 209.460938 201.097656 C 207.667969 199.980469 205.847656 198.792969 204.003906 197.554688 C 206.414062 195.625 208.574219 193.453125 210.488281 191.035156 C 212.40625 188.617188 214.027344 186.015625 215.359375 183.230469 C 216.6875 180.449219 217.6875 177.550781 218.363281 174.539062 C 219.039062 171.527344 219.371094 168.480469 219.359375 165.394531 Z M 247.484375 219.832031 C 246.96875 225.222656 241.054688 228.3125 231.234375 228.3125 C 215.71875 228.3125 199.238281 216.316406 183.300781 204.714844 C 181.648438 203.507812 180.003906 202.3125 178.371094 201.136719 L 178.371094 185.839844 C 181.027344 187.722656 183.703125 189.660156 186.316406 191.546875 C 203.105469 203.679688 218.953125 215.140625 231.234375 215.140625 C 237.863281 215.140625 243.117188 213.886719 246.84375 211.410156 C 247.0625 211.265625 247.277344 211.117188 247.484375 210.960938 Z M 247.484375 219.832031"/></g></svg>