<svg xmlns="http://www.w3.org/2000/svg"  viewBox="0 0 24 24" width="24px" height="24px"><circle cx="12" cy="12" r="2"/><path d="M18,3H6C4.343,3,3,4.343,3,6v12c0,1.657,1.343,3,3,3h12c1.657,0,3-1.343,3-3V6C21,4.343,19.657,3,18,3z M12,17 c-2.757,0-5-2.243-5-5s2.243-5,5-5s5,2.243,5,5S14.757,17,12,17z M17,7c-0.552,0-1-0.448-1-1c0-0.552,0.448-1,1-1s1,0.448,1,1 C18,6.552,17.552,7,17,7z"/><path d="M12,17c-2.757,0-5-2.243-5-5s2.243-5,5-5s5,2.243,5,5S14.757,17,12,17z M12,10c-1.103,0-2,0.897-2,2s0.897,2,2,2 s2-0.897,2-2S13.103,10,12,10z" opacity=".35"/><g opacity=".35"><circle cx="17" cy="6" r="1"/></g></svg>